# File created by Blade
# Date/Time:  Thu Sep 25 21:01:51 2014
# Frame Rate: 120.000 fps
#------------------------------------------------------
:FULLY-SPECIFIED
:DEGREES
1201
root 0.184370 2.350203 -8.239519 -31.106536 1.954159 -1.002427
Spine 34.984907 12.274572 4.931036
Head -9.618926 -25.274248 16.907325
LeftShoulder -2.301593 9.401634 20.726141
LeftArm 33.221896 16.097748 -58.490091
LeftForeArm -29.175077 -0.000000 92.981450
LeftHand -12.834592 -0.000000 -22.061933
LeftHandThumb1 -26.253704 0.000000 33.147579
RightShoulder -6.356755 26.389189 -27.983124
RightArm 12.662347 -25.408220 65.876854
RightForeArm -39.526807 -0.000000 74.318214
RightHand -10.616103 -0.000000 33.301731
RightHandThumb1 -24.326973 -0.000000 -32.862282
LeftUpLeg -124.019320 -18.753591 -46.788258
LeftLeg 117.568880 -0.000000 -0.000000
LeftFoot 41.487829 -31.047732 -44.497347
LeftToeBase -2.874301 -0.000000 0.000000
RightUpLeg -60.863568 -10.669222 3.839011
RightLeg 8.506997 -0.000000 -0.000000
RightFoot 20.965207 -3.660841 10.293354
RightToeBase -0.807702 -0.000000 0.000000
1202
root 0.189575 2.349234 -8.245149 -31.344582 2.051221 -0.972298
Spine 35.289224 12.389663 5.102777
Head -9.651773 -25.532968 16.930210
LeftShoulder -2.195505 9.274308 20.753228
LeftArm 33.280112 16.078164 -58.652423
LeftForeArm -29.052162 0.000000 92.788039
LeftHand -12.740954 -0.000000 -22.254624
LeftHandThumb1 -26.253704 0.000000 33.147579
RightShoulder -6.055245 26.662414 -27.446678
RightArm 13.757753 -25.989339 64.668882
RightForeArm -38.762939 0.000000 72.919328
RightHand -10.386121 -0.000000 32.938063
RightHandThumb1 -24.326973 -0.000000 -32.862282
LeftUpLeg -123.924129 -18.141558 -46.331362
LeftLeg 117.437569 -0.000000 -0.000000
LeftFoot 40.970247 -30.953095 -44.320335
LeftToeBase -2.730959 -0.000000 0.000000
RightUpLeg -60.626313 -10.723178 3.656487
RightLeg 8.524022 -0.000000 -0.000000
RightFoot 20.944882 -3.726870 10.291073
RightToeBase -0.781764 -0.000000 0.000000
1203
root 0.190494 2.347179 -8.251207 -31.571066 2.108821 -0.952351
Spine 35.601305 12.463484 5.286824
Head -9.717160 -25.725046 16.850639
LeftShoulder -2.197041 9.187627 20.721238
LeftArm 33.392280 16.064343 -58.740599
LeftForeArm -29.201020 -0.000000 92.576968
LeftHand -12.717518 -0.000000 -21.829899
LeftHandThumb1 -26.253704 0.000000 33.147579
RightShoulder -5.778361 26.959089 -27.125132
RightArm 14.953357 -26.702582 63.552958
RightForeArm -37.911987 -0.000000 71.279085
RightHand -10.098982 -0.000000 32.468849
RightHandThumb1 -24.326973 -0.000000 -32.862282
LeftUpLeg -123.867557 -17.474058 -45.791350
LeftLeg 117.316970 -0.000000 -0.000000
LeftFoot 40.809717 -30.595685 -44.631880
LeftToeBase -2.934622 -0.000000 0.000000
RightUpLeg -60.403108 -10.747795 3.528953
RightLeg 8.537713 -0.000000 -0.000000
RightFoot 20.935522 -3.792789 10.270036
RightToeBase -0.737436 -0.000000 0.000000
1204
root 0.192542 2.344691 -8.258090 -31.802870 2.179201 -0.906039
Spine 35.932204 12.561026 5.439320
Head -9.795803 -25.898670 16.773299
LeftShoulder -2.164682 9.073465 20.722393
LeftArm 33.489861 16.087659 -58.816355
LeftForeArm -29.154668 0.000000 92.411439
LeftHand -12.627084 -0.000000 -22.074149
LeftHandThumb1 -26.253704 0.000000 33.147579
RightShoulder -5.475666 27.163575 -26.686985
RightArm 16.334381 -27.389513 62.224201
RightForeArm -37.012198 0.000000 69.609921
RightHand -9.560559 -0.000000 31.848936
RightHandThumb1 -24.326973 -0.000000 -32.862282
LeftUpLeg -123.783308 -16.768760 -45.294096
LeftLeg 117.173134 -0.000000 -0.000000
LeftFoot 40.658121 -30.320278 -44.874336
LeftToeBase -2.563382 -0.000000 0.000000
RightUpLeg -60.221570 -10.815060 3.458111
RightLeg 8.592658 -0.000000 -0.000000
RightFoot 20.953177 -3.891754 10.395059
RightToeBase -0.805096 -0.000000 0.000000
1205
root 0.196931 2.340877 -8.261243 -32.019241 2.263695 -0.863172
Spine 36.216428 12.658528 5.600797
Head -9.854618 -26.037282 16.685124
LeftShoulder -2.122799 9.025037 20.747702
LeftArm 33.656612 16.087509 -58.933669
LeftForeArm -29.194668 -0.000000 92.181058
LeftHand -12.647501 0.000000 -21.566531
LeftHandThumb1 -26.253704 0.000000 33.147579
RightShoulder -5.142770 27.477808 -26.243942
RightArm 17.542003 -27.988793 61.103225
RightForeArm -36.268945 -0.000000 67.914269
RightHand -8.988522 -0.000000 31.760132
RightHandThumb1 -24.326973 -0.000000 -32.862282
LeftUpLeg -123.603688 -16.197390 -44.972969
LeftLeg 117.138131 -0.000000 -0.000000
LeftFoot 39.595275 -30.154458 -44.214258
LeftToeBase -2.416807 -0.000000 0.000000
RightUpLeg -59.982845 -10.799637 3.200287
RightLeg 8.597598 -0.000000 -0.000000
RightFoot 20.874324 -3.887284 10.252471
RightToeBase -0.641367 -0.000000 0.000000
1206
root 0.196303 2.338208 -8.266626 -32.245371 2.290847 -0.851831
Spine 36.529238 12.775367 5.834689
Head -9.928483 -26.177659 16.559478
LeftShoulder -2.102203 8.965825 20.741683
LeftArm 33.859142 16.097611 -59.016315
LeftForeArm -29.014032 -0.000000 91.929050
LeftHand -12.639738 -0.000000 -21.755772
LeftHandThumb1 -26.253704 0.000000 33.147579
RightShoulder -4.804054 27.745768 -25.840206
RightArm 18.799227 -28.559961 59.963881
RightForeArm -35.366158 -0.000000 66.136979
RightHand -8.431917 0.000000 31.739074
RightHandThumb1 -24.326973 -0.000000 -32.862282
LeftUpLeg -123.508928 -15.472720 -44.406905
LeftLeg 117.009109 -0.000000 -0.000000
LeftFoot 39.473846 -29.774547 -44.598453
LeftToeBase -2.138668 -0.000000 0.000000
RightUpLeg -59.803474 -10.857920 3.208751
RightLeg 8.642537 -0.000000 -0.000000
RightFoot 20.900601 -3.938745 10.378466
RightToeBase -0.743128 -0.000000 0.000000
1207
root 0.203095 2.334426 -8.270426 -32.478259 2.384031 -0.797968
Spine 36.833085 12.833291 5.970308
Head -9.993370 -26.295369 16.424446
LeftShoulder -2.060399 8.874108 20.802084
LeftArm 33.972818 16.002793 -59.360713
LeftForeArm -28.827676 0.000000 91.624757
LeftHand -12.791221 -0.000000 -22.040437
LeftHandThumb1 -26.253704 0.000000 33.147579
RightShoulder -4.359275 28.009879 -25.376372
RightArm 20.066327 -29.157504 58.721310
RightForeArm -34.585639 0.000000 64.314600
RightHand -7.962007 -0.000000 31.475405
RightHandThumb1 -24.326973 -0.000000 -32.862282
LeftUpLeg -123.317821 -14.794943 -43.952144
LeftLeg 116.862651 -0.000000 -0.000000
LeftFoot 39.023615 -29.448041 -44.791113
LeftToeBase -0.998109 -0.000000 0.000000
RightUpLeg -59.548706 -10.857318 2.937955
RightLeg 8.639893 -0.000000 -0.000000
RightFoot 20.848052 -3.865966 10.258886
RightToeBase -0.682704 -0.000000 0.000000
1208
root 0.207630 2.332203 -8.276638 -32.699636 2.446672 -0.743399
Spine 37.139895 12.889444 6.101002
Head -10.087586 -26.377780 16.311906
LeftShoulder -2.077037 8.781876 20.820712
LeftArm 34.119728 16.017277 -59.533145
LeftForeArm -29.100467 -0.000000 91.397207
LeftHand -12.988195 -0.000000 -21.836248
LeftHandThumb1 -26.253704 0.000000 33.147579
RightShoulder -3.886452 28.323383 -24.951597
RightArm 21.232053 -29.769021 57.590465
RightForeArm -34.014640 -0.000000 62.470312
RightHand -6.930452 -0.000000 30.793619
RightHandThumb1 -24.326973 -0.000000 -32.862282
LeftUpLeg -123.139072 -14.081915 -43.489118
LeftLeg 116.722023 -0.000000 -0.000000
LeftFoot 38.694462 -29.052353 -44.949105
LeftToeBase -0.751623 -0.000000 0.000000
RightUpLeg -59.376241 -10.933344 2.891309
RightLeg 8.686221 -0.000000 -0.000000
RightFoot 20.866523 -3.915207 10.428154
RightToeBase -0.726770 -0.000000 0.000000
1209
root 0.209287 2.330769 -8.280272 -32.930981 2.512659 -0.699816
Spine 37.457339 13.022541 6.293494
Head -10.183629 -26.570419 16.211209
LeftShoulder -1.974762 8.650121 20.846602
LeftArm 34.258314 16.021758 -59.619988
LeftForeArm -28.986627 -0.000000 91.156747
LeftHand -12.965028 -0.000000 -21.960474
LeftHandThumb1 -26.253704 0.000000 33.147579
RightShoulder -3.463479 28.528348 -24.534729
RightArm 22.458677 -30.287368 56.440612
RightForeArm -33.207269 -0.000000 60.675268
RightHand -6.574712 -0.000000 30.703027
RightHandThumb1 -24.326973 -0.000000 -32.862282
LeftUpLeg -122.927056 -13.358541 -43.010367
LeftLeg 116.576999 -0.000000 -0.000000
LeftFoot 38.351938 -28.698592 -45.089823
LeftToeBase 0.096932 -0.000000 -0.000000
RightUpLeg -59.164981 -10.979454 2.778558
RightLeg 8.721029 -0.000000 -0.000000
RightFoot 20.863062 -3.920481 10.518254
RightToeBase -0.753974 -0.000000 0.000000
1210
root 0.210661 2.329129 -8.286673 -33.127689 2.600445 -0.660401
Spine 37.740919 13.162901 6.471027
Head -10.290429 -26.803149 16.128594
LeftShoulder -1.891193 8.497865 20.846230
LeftArm 34.467133 16.041039 -59.638837
LeftForeArm -28.856285 -0.000000 90.830128
LeftHand -12.884604 0.000000 -21.542719
LeftHandThumb1 -26.253704 0.000000 33.147579
RightShoulder -3.017445 28.739488 -24.053363
RightArm 23.667813 -30.790461 55.263652
RightForeArm -32.424434 -0.000000 58.822165
RightHand -6.316424 -0.000000 30.381729
RightHandThumb1 -24.326973 -0.000000 -32.862282
LeftUpLeg -122.733544 -12.626092 -42.451865
LeftLeg 116.303875 -0.000000 -0.000000
LeftFoot 38.477521 -28.277521 -45.487518
LeftToeBase 0.832333 -0.000000 -0.000000
RightUpLeg -58.976746 -11.025302 2.632116
RightLeg 8.747674 -0.000000 -0.000000
RightFoot 20.855818 -3.917726 10.562529
RightToeBase -0.783552 -0.000000 0.000000
1211
root 0.213937 2.328419 -8.290923 -33.328570 2.715635 -0.608899
Spine 38.026375 13.296366 6.626983
Head -10.403257 -27.031336 16.027246
LeftShoulder -1.765600 8.364117 20.838208
LeftArm 34.671867 16.031764 -59.629488
LeftForeArm -28.718275 0.000000 90.549039
LeftHand -12.961453 -0.000000 -21.329590
LeftHandThumb1 -26.253704 0.000000 33.147579
RightShoulder -2.586023 28.952685 -23.649690
RightArm 24.760493 -31.249637 54.286366
RightForeArm -31.713657 0.000000 56.893784
RightHand -5.504967 -0.000000 29.407097
RightHandThumb1 -24.326973 -0.000000 -32.862282
LeftUpLeg -122.468178 -11.940996 -41.951671
LeftLeg 116.083305 -0.000000 -0.000000
LeftFoot 38.143837 -27.772749 -45.735371
LeftToeBase 2.299925 -0.000000 -0.000000
RightUpLeg -58.751496 -11.049602 2.380938
RightLeg 8.757038 -0.000000 -0.000000
RightFoot 20.799374 -3.865579 10.447817
RightToeBase -0.667885 -0.000000 0.000000
